<svg width="24" height="23" viewBox="0 0 24 23" fill="none" xmlns="http://www.w3.org/2000/svg">
<path d="M10.5125 3.13125C12.6 1.04375 13.6438 0 14.94 0C16.2375 0 17.2813 1.04375 19.3688 3.13125C21.4563 5.21875 22.5 6.2625 22.5 7.56C22.5 8.85625 21.4563 9.9 19.3688 11.9875L14.1275 17.23L5.27002 8.3725L10.5125 3.13125Z" fill="white"/>
<path d="M3.945 9.69876L12.8013 18.555L11.9887 19.3675C11.5162 19.8413 11.0975 20.26 10.7162 20.625H22.5C22.7486 20.625 22.9871 20.7238 23.1629 20.8996C23.3387 21.0754 23.4375 21.3139 23.4375 21.5625C23.4375 21.8112 23.3387 22.0496 23.1629 22.2254C22.9871 22.4012 22.7486 22.5 22.5 22.5H7.5C6.23 22.4688 5.1875 21.425 3.13125 19.3688C1.04375 17.2813 0 16.2375 0 14.94C0 13.6438 1.04375 12.6 3.13125 10.5125L3.945 9.69876Z" fill="white"/>
</svg>
